<?xml version="1.0" encoding="UTF-8" standalone="no"?>
<svg
   sodipodi:docname="card.svg"
   inkscape:version="1.3 (0e150ed6c4, 2023-07-21)"
   id="svg10448"
   version="1.1"
   viewBox="0 0 158.75 105.83334"
   height="400.00003"
   width="600"
   inkscape:export-filename="card.png"
   inkscape:export-xdpi="192"
   inkscape:export-ydpi="192"
   xml:space="preserve"
   xmlns:inkscape="http://www.inkscape.org/namespaces/inkscape"
   xmlns:sodipodi="http://sodipodi.sourceforge.net/DTD/sodipodi-0.dtd"
   xmlns:xlink="http://www.w3.org/1999/xlink"
   xmlns="http://www.w3.org/2000/svg"
   xmlns:svg="http://www.w3.org/2000/svg"
   xmlns:rdf="http://www.w3.org/1999/02/22-rdf-syntax-ns#"
   xmlns:cc="http://creativecommons.org/ns#"
   xmlns:dc="http://purl.org/dc/elements/1.1/"><defs
     id="defs10442"><filter
       id="filter62647-5-1-29"
       inkscape:label="Better Shadow"
       style="color-interpolation-filters:sRGB"
       x="-0.14328897"
       y="-0.089033969"
       width="1.286578"
       height="1.3395338"><feFlood
         id="feFlood62637-04-2-75"
         result="flood"
         flood-color="rgb(0,0,0)"
         flood-opacity="0.180392" /><feComposite
         id="feComposite62639-87-2-64"
         result="composite1"
         operator="in"
         in2="SourceGraphic"
         in="flood" /><feGaussianBlur
         id="feGaussianBlur62641-1-7-63"
         result="blur"
         stdDeviation="7"
         in="composite1" /><feOffset
         id="feOffset62643-7-7-7"
         result="offset"
         dy="6"
         dx="0" /><feComposite
         id="feComposite62645-2-9-9"
         result="fbSourceGraphic"
         operator="over"
         in2="offset"
         in="SourceGraphic" /><feColorMatrix
         id="feColorMatrix62793-7-1-7"
         values="0 0 0 -1 0 0 0 0 -1 0 0 0 0 -1 0 0 0 0 1 0"
         in="fbSourceGraphic"
         result="fbSourceGraphicAlpha" /><feFlood
         in="fbSourceGraphic"
         result="flood"
         flood-color="rgb(0,0,0)"
         flood-opacity="0.34902"
         id="feFlood62795-2-4-49" /><feComposite
         result="composite1"
         operator="in"
         in="flood"
         id="feComposite62797-26-04-17"
         in2="fbSourceGraphic" /><feGaussianBlur
         result="blur"
         stdDeviation="3.5"
         in="composite1"
         id="feGaussianBlur62799-1-7-0" /><feOffset
         result="offset"
         dy="3"
         dx="0"
         id="feOffset62801-06-8-6" /><feComposite
         result="composite2"
         operator="over"
         in="fbSourceGraphic"
         id="feComposite62803-1-7-0"
         in2="offset" /></filter><linearGradient
       id="Gradient"
       x1="0"
       x2="0"
       y1="0"
       y2="256"
       gradientUnits="userSpaceOnUse"
       gradientTransform="matrix(0.62011718,0,0,0.41341148,459.7283,-604.72058)"><stop
         offset="0%"
         style="stop-color:#F6D32D;stop-opacity:1"
         id="stop1" /><stop
         offset="100%"
         style="stop-color:#F6D32D;stop-opacity:1"
         id="stop2" /></linearGradient><filter
       id="alpha-to-white"
       x="0"
       y="0"
       width="1"
       height="1"><feColorMatrix
         in="SourceGraphic"
         type="matrix"
         values="0 0 0 0 0 0 0 0 0 0 0 0 0 0 0 0 0 0 0.8 0"
         id="feColorMatrix2" /></filter><g
       id="child-svg"><svg
         height="16px"
         viewBox="0 0 16 16"
         width="16px"
         version="1.1"
         id="svg3"><g
           fill="#222222"
           id="g3"><path
             d="m 10.421875 1.007812 c -1.359375 -1.359374 -3.601563 -1.242187 -4.976563 0.132813 l -4.304687 4.304687 c -1.375 1.375 -1.492187 3.617188 -0.132813 4.976563 l 4.570313 4.570313 c 1.359375 1.359374 3.597656 1.242187 4.976563 -0.132813 l 4.304687 -4.308594 c 1.375 -1.375 1.492187 -3.613281 0.132813 -4.972656 z m -1.414063 1.414063 l 4.570313 4.570313 c 0.542969 0.539062 0.539063 1.476562 -0.132813 2.144531 l -4.308593 4.308593 c -0.667969 0.671876 -1.601563 0.675782 -2.144531 0.132813 l -4.570313 -4.570313 c -0.542969 -0.542968 -0.539063 -1.476562 0.132813 -2.148437 l 4.304687 -4.304687 c 0.671875 -0.671876 1.605469 -0.675782 2.148437 -0.132813 z m 0 0"
             id="path2" /><path
             d="m 8.292969 3.191406 c -1.304688 -0.089844 -2.640625 0.308594 -3.675781 1.25 c -1.855469 1.691406 -2.109376 4.671875 -0.371094 6.554688 c 1.539062 1.667968 4.238281 1.886718 5.929687 0.296875 c 1.476563 -1.386719 1.664063 -3.804688 0.222657 -5.304688 c -1.234376 -1.285156 -3.375 -1.445312 -4.683594 -0.148437 c -1.09375 1.085937 -1.222656 2.945312 -0.066406 4.0625 c 0.933593 0.90625 2.515624 0.996094 3.441406 -0.015625 c 0.710937 -0.785157 0.769531 -2.097657 -0.113282 -2.824219 c -0.320312 -0.257812 -0.71875 -0.386719 -1.121093 -0.367188 c -0.40625 0.019532 -0.828125 0.210938 -1.085938 0.597657 c -0.164062 0.246093 -0.226562 0.539062 -0.183593 0.835937 c 0.042968 0.300782 0.25 0.636719 0.605468 0.761719 c 0.265625 0.089844 0.425782 0.039063 0.625 -0.074219 c 0.101563 -0.054687 0.226563 -0.148437 0.289063 -0.328125 c 0.058593 -0.183593 -0.007813 -0.40625 -0.109375 -0.53125 c -0.140625 -0.164062 -0.386719 -0.191406 -0.5625 -0.0625 c 0.007812 -0.054687 0.011718 -0.109375 0.03125 -0.140625 c 0.101562 -0.152344 0.242187 -0.21875 0.429687 -0.226562 c 0.191407 -0.011719 0.40625 0.058594 0.554688 0.179687 c 0.476562 0.390625 0.441406 1.160157 0.023437 1.617188 c -0.582031 0.640625 -1.628906 0.578125 -2.246094 -0.019531 c -0.796874 -0.769532 -0.707031 -2.097657 0.074219 -2.871094 c 0.960938 -0.953125 2.570313 -0.832032 3.5 0.132812 c 1.101563 1.148438 0.953125 3.042969 -0.195312 4.121094 c -1.339844 1.257812 -3.515625 1.078125 -4.75 -0.257812 c -1.410157 -1.527344 -1.199219 -3.984376 0.324219 -5.371094 c 1.714843 -1.5625 4.457031 -1.324219 5.996093 0.386718 c 1.492188 1.65625 1.511719 4.234376 0.148438 5.980469 c -0.140625 0.183594 -0.109375 0.445313 0.074219 0.585938 c 0.179687 0.140625 0.441406 0.109375 0.582031 -0.070313 c 1.609375 -2.066406 1.585937 -5.082031 -0.1875 -7.054687 c -0.917969 -1.023438 -2.195313 -1.605469 -3.5 -1.695313 z m 0 0"
             fill-rule="evenodd"
             id="path3" /></g></svg></g></defs><sodipodi:namedview
     inkscape:snap-bbox-midpoints="true"
     inkscape:snap-bbox-edge-midpoints="true"
     inkscape:bbox-nodes="true"
     inkscape:bbox-paths="true"
     inkscape:snap-bbox="true"
     inkscape:window-maximized="1"
     inkscape:window-y="0"
     inkscape:window-x="0"
     inkscape:window-height="1016"
     inkscape:window-width="1920"
     units="px"
     showgrid="false"
     inkscape:document-rotation="0"
     inkscape:current-layer="layer1"
     inkscape:document-units="px"
     inkscape:cy="153.7187"
     inkscape:cx="407.73045"
     inkscape:zoom="1"
     inkscape:pageshadow="2"
     inkscape:pageopacity="0.0"
     borderopacity="1.0"
     bordercolor="#666666"
     pagecolor="#ffffff"
     id="base"
     inkscape:snap-page="true"
     inkscape:snap-text-baseline="true"
     inkscape:snap-center="true"
     inkscape:snap-object-midpoints="true"
     inkscape:pagecheckerboard="1"
     inkscape:showpageshadow="0"
     inkscape:deskcolor="#d1d1d1"><inkscape:grid
       originy="1.2031857e-13"
       originx="0"
       id="grid11077"
       type="xygrid"
       spacingy="1"
       spacingx="1"
       units="px"
       visible="false" /></sodipodi:namedview><metadata
     id="metadata10445"><rdf:RDF><cc:Work
         rdf:about=""><dc:format>image/svg+xml</dc:format><dc:type
           rdf:resource="http://purl.org/dc/dcmitype/StillImage" /></cc:Work></rdf:RDF></metadata><g
     transform="translate(-459.7283,604.72058)"
     id="layer1"
     inkscape:groupmode="layer"
     inkscape:label="Layer 1"><rect
       width="158.75"
       height="105.83334"
       fill="url(#Gradient)"
       ry="0"
       x="459.7283"
       y="-604.72058"
       id="rect3"
       style="fill:url(#Gradient);stroke-width:0.506323" /><use
       xlink:href="#child-svg"
       filter="url(#alpha-to-white)"
       transform="matrix(2.1166666,0,0,2.1166666,522.16997,-577.74032)"
       id="use3" /><path
       d="m 487.98366,-537.652 h -2.42211 l 2.36,3.97474 -2.43765,3.97473 h 2.45318 l 1.35079,-2.36001 h 0.0623 l 1.35076,2.36001 h 2.4687 l -2.4687,-3.97473 2.37553,-3.97474 h -2.40657 l -1.31972,2.31342 h -0.0623 z m 9.0829,7.94947 c 2.42209,0 3.95917,-1.49053 3.95917,-3.97473 0,-2.4842 -1.53708,-3.97474 -3.99025,-3.97474 h -3.02762 v 7.94947 z m -0.90053,-1.83211 v -4.28526 h 0.76079 c 1.24208,0 1.92526,0.48132 1.92526,2.14264 0,1.6613 -0.68318,2.14262 -1.86317,2.14262 z m 11.0159,-3.49342 h 2.18142 c -0.16686,-1.59532 -1.61473,-2.7326 -3.4934,-2.7326 -2.14264,0 -3.88157,1.47498 -3.88157,4.09891 0,2.51526 1.57592,4.0679 3.89708,4.0679 2.08054,0 3.57107,-1.27315 3.57107,-3.44684 v -1.10238 h -3.52448 v 1.53714 h 1.44395 c -0.0199,0.69089 -0.5085,1.13342 -1.475,1.13342 -1.11787,0 -1.69237,-0.8229 -1.69237,-2.22028 0,-1.37795 0.62104,-2.18921 1.70792,-2.18921 0.67537,0 1.1334,0.31053 1.26538,0.85394 z m 8.51617,5.32553 c 2.42212,0 3.9592,-1.49053 3.9592,-3.97473 0,-2.4842 -1.53708,-3.97474 -3.99025,-3.97474 h -3.02763 v 7.94947 z m -0.90052,-1.83211 v -4.28526 h 0.76078 c 1.24211,0 1.92526,0.48132 1.92526,2.14264 0,1.6613 -0.68315,2.14262 -1.86314,2.14262 z m 8.74132,1.94079 c 1.65355,0 2.71709,-0.79184 2.91892,-2.03395 h -1.95631 c -0.12413,0.3377 -0.47744,0.52791 -0.91607,0.52791 -0.63655,0 -1.00917,-0.41922 -1.00917,-0.99369 v -0.0932 h 3.88155 v -0.49683 c 0,-1.89809 -1.16446,-3.05868 -2.96552,-3.05868 -1.84762,0 -3.02764,1.22656 -3.02764,3.0742 0,1.92915 1.16448,3.07421 3.07424,3.07421 z m -0.96263,-3.77288 c 0.0115,-0.51627 0.4386,-0.86949 0.96263,-0.86949 0.53177,0 0.93543,0.35712 0.94709,0.86949 z m 10.20076,-0.35712 c -0.0544,-1.26151 -1.10236,-2.01841 -2.82579,-2.01841 -1.70401,0 -2.75593,0.6987 -2.74816,1.94078 -0.008,0.93934 0.60165,1.54099 1.81657,1.75448 l 1.0558,0.18634 c 0.4658,0.0855 0.6754,0.20958 0.68315,0.43472 -0.007,0.24843 -0.29113,0.38816 -0.68315,0.38816 -0.48519,0 -0.82677,-0.20957 -0.88501,-0.58999 h -2.1271 c 0.1164,1.2227 1.17223,2.03395 2.99658,2.03395 1.64967,0 2.8646,-0.80349 2.87236,-2.08054 -0.008,-0.8811 -0.59775,-1.39347 -1.81656,-1.61474 l -1.21106,-0.21733 c -0.45414,-0.0814 -0.58225,-0.24455 -0.57447,-0.41922 -0.008,-0.24842 0.29888,-0.38816 0.66764,-0.38816 0.42308,0 0.77631,0.22515 0.80735,0.59001 z m 0.97815,4.02132 h 2.14264 v -1.69236 l 0.32217,-0.40756 1.21491,2.09992 h 2.45316 l -2.08828,-3.3498 2.02618,-2.6123 h -2.40659 l -1.44393,2.00288 h -0.0778 V -537.652 H 533.755 Z m 10.18526,-5.9621 h -1.02473 v -1.42842 h -2.14264 v 1.42842 h -0.76078 v 1.55262 h 0.76078 v 2.69382 c -0.0148,1.24989 0.75693,1.88258 2.2358,1.80106 0.48517,-0.0271 0.84616,-0.12808 1.04026,-0.18634 l -0.31054,-1.50605 c -0.0814,0.0199 -0.29111,0.0622 -0.4192,0.0622 -0.27948,0 -0.40368,-0.12413 -0.40368,-0.37262 v -2.49199 h 1.02473 z m 3.67971,6.07078 c 1.94081,0 3.08977,-1.24211 3.08977,-3.07421 0,-1.83209 -1.14896,-3.0742 -3.08977,-3.0742 -1.94078,0 -3.08972,1.24211 -3.08972,3.0742 0,1.8321 1.14894,3.07421 3.08972,3.07421 z m 0.0148,-1.58368 c -0.57448,0 -0.91606,-0.5706 -0.91606,-1.50604 0,-0.93545 0.34158,-1.50606 0.91606,-1.50606 0.54343,0 0.88501,0.57061 0.88501,1.50606 0,0.93544 -0.34158,1.50604 -0.88501,1.50604 z m 3.94368,3.71077 h 2.14262 v -3.21391 h 0.0309 c 0.24841,0.60551 0.8229,1.05576 1.6613,1.05576 1.27317,0 2.34447,-0.99367 2.34447,-3.05866 0,-2.15816 -1.14895,-3.05869 -2.32893,-3.05869 -0.88501,0 -1.44395,0.51237 -1.67684,1.11788 h -0.0465 v -1.04025 h -2.1271 z m 2.09606,-5.21681 c 0,-0.88501 0.35709,-1.4129 0.94709,-1.4129 0.59,0 0.93158,0.52789 0.93158,1.4129 0,0.88498 -0.34158,1.41289 -0.93158,1.41289 -0.59,0 -0.94709,-0.54341 -0.94709,-1.41289 z m 7.12658,2.98104 h 2.15815 v -2.36001 h 1.19552 c 1.8127,0 3.02764,-1.06744 3.02764,-2.77919 0,-1.69237 -1.18388,-2.81027 -2.95001,-2.81027 h -3.4313 z m 2.15815,-4.03684 v -2.18922 h 0.7608 c 0.75688,0 1.21105,0.4037 1.21105,1.08686 0,0.67926 -0.45417,1.10236 -1.21105,1.10236 z m 7.79419,4.14552 c 1.94081,0 3.08974,-1.24211 3.08974,-3.07421 0,-1.83209 -1.14893,-3.0742 -3.08974,-3.0742 -1.94078,0 -3.08972,1.24211 -3.08972,3.0742 0,1.8321 1.14894,3.07421 3.08972,3.07421 z m 0.0148,-1.58368 c -0.57446,0 -0.91604,-0.5706 -0.91604,-1.50604 0,-0.93545 0.34158,-1.50606 0.91604,-1.50606 0.54343,0 0.88502,0.57061 0.88502,1.50606 0,0.93544 -0.34159,1.50604 -0.88502,1.50604 z m 3.9437,1.475 h 2.14263 v -3.10528 c 0,-0.68315 0.46966,-1.13342 1.10238,-1.13342 0.22131,0 0.57833,0.035 0.79182,0.10867 v -1.82822 c -0.17086,-0.0505 -0.35709,-0.0814 -0.54341,-0.0814 -0.63657,0 -1.13344,0.37263 -1.35079,1.21107 h -0.0621 v -1.13342 h -2.08054 z m 8.53947,-5.9621 h -1.02473 v -1.42842 h -2.14263 v 1.42842 h -0.76079 v 1.55262 h 0.76079 v 2.69382 c -0.0148,1.24989 0.75691,1.88258 2.23579,1.80106 0.48521,-0.0271 0.84619,-0.12808 1.04028,-0.18634 l -0.31054,-1.50605 c -0.0814,0.0199 -0.29113,0.0622 -0.41922,0.0622 -0.27947,0 -0.40368,-0.12413 -0.40368,-0.37262 v -2.49199 h 1.02473 z m 2.53078,6.05524 c 0.77632,0 1.36245,-0.26393 1.72343,-0.93157 h 0.0465 v 0.83843 h 2.00291 v -4.08342 c 0,-1.10238 -1.04414,-1.95631 -2.74815,-1.95631 -1.78165,0 -2.65888,0.93159 -2.73262,2.01841 h 1.97182 c 0.0505,-0.36876 0.3222,-0.54341 0.72974,-0.54341 0.37264,0 0.63658,0.17085 0.63658,0.48131 v 0.0148 c 0,0.34548 -0.38038,0.45415 -1.38183,0.52791 -1.23047,0.0893 -2.1892,0.58613 -2.1892,1.8942 0,1.18776 0.79958,1.73895 1.94078,1.73895 z m 0.6987,-1.35077 c -0.36487,0 -0.62106,-0.1786 -0.62106,-0.51235 0,-0.30666 0.21734,-0.54345 0.7142,-0.62107 0.34158,-0.0544 0.62883,-0.12413 0.85396,-0.21732 v 0.49684 c 0,0.54343 -0.46192,0.85395 -0.9471,0.85395 z m 6.24157,-6.69184 h -2.14256 v 7.94947 h 2.14263 z"
       id="path1"
       style="font-weight:900;font-size:18.6667px;line-height:1.25;font-family:Inter;-inkscape-font-specification:'Inter, Heavy';letter-spacing:0px;word-spacing:0px;white-space:pre;fill:#222222;fill-opacity:1;stroke-width:0.585561"
       aria-label="XDG Desktop Portal" /></g></svg>
