<?xml version="1.0" standalone="no"?>
<!DOCTYPE svg PUBLIC "-//W3C//DTD SVG 20010904//EN"
 "http://www.w3.org/TR/2001/REC-SVG-20010904/DTD/svg10.dtd">
<svg version="1.0" xmlns="http://www.w3.org/2000/svg"
 width="700.000000pt" height="700.000000pt" viewBox="0 0 700.000000 700.000000"
 preserveAspectRatio="xMidYMid meet">
<metadata>
Created by potrace 1.14, written by Peter Selinger 2001-2017
</metadata>
<g transform="translate(0.000000,700.000000) scale(0.100000,-0.100000)"
fill="#000000" stroke="none">
<path d="M3385 6944 c-22 -3 -88 -14 -148 -25 -304 -56 -566 -191 -814 -419
-216 -197 -1977 -1972 -2035 -2050 -331 -447 -421 -986 -248 -1475 42 -116 83
-199 161 -316 55 -84 184 -216 1163 -1195 974 -974 1112 -1108 1194 -1163 162
-106 332 -177 522 -218 67 -14 130 -18 295 -18 182 0 223 3 312 23 253 57 456
149 652 298 117 88 2122 2094 2192 2192 213 300 312 602 312 952 0 240 -40
424 -137 626 -63 130 -113 208 -207 319 -37 44 -535 546 -1106 1116 -966 964
-1045 1041 -1145 1107 -176 116 -363 193 -553 227 -90 16 -334 27 -410 19z
m325 -890 c41 -13 102 -41 135 -63 34 -23 190 -170 365 -346 l305 -306 -85 39
c-196 91 -399 152 -625 189 -170 28 -526 25 -699 -6 -184 -32 -351 -83 -541
-165 -33 -14 5 28 210 234 138 138 273 268 300 290 202 157 419 203 635 134z
m-80 -834 c807 -72 1462 -621 1669 -1401 55 -206 65 -292 65 -539 -1 -187 -4
-245 -22 -344 -39 -211 -106 -416 -195 -591 -38 -77 -64 -104 -626 -668 -324
-325 -612 -607 -645 -629 -137 -95 -266 -132 -426 -125 -117 5 -202 30 -287
85 -26 17 -232 216 -458 443 -386 387 -406 409 -345 376 149 -81 372 -158 560
-193 115 -22 410 -30 541 -14 140 16 341 69 471 123 384 162 703 467 878 839
236 505 204 1111 -84 1553 -261 401 -650 638 -1121 685 -554 55 -1095 -235
-1334 -714 -103 -207 -136 -352 -135 -591 0 -142 4 -185 23 -265 111 -453 439
-772 886 -862 82 -16 125 -19 235 -14 201 7 350 52 497 148 199 130 344 329
404 553 26 96 31 296 10 390 -29 135 -98 268 -188 366 -269 290 -703 319 -958
64 -80 -79 -127 -160 -150 -256 -38 -162 -1 -311 106 -424 68 -72 143 -107
240 -113 67 -4 84 -1 130 21 84 38 134 80 159 133 51 104 15 247 -76 300 -38
22 -53 26 -102 22 -31 -3 -65 -9 -74 -13 -28 -11 -23 28 8 65 95 112 308 96
437 -32 73 -73 109 -158 115 -272 9 -169 -41 -300 -157 -417 -169 -169 -435
-221 -682 -133 -346 123 -555 493 -495 879 30 200 118 377 255 516 124 124
257 202 436 255 112 32 320 44 442 24 462 -74 806 -389 930 -850 35 -131 43
-371 18 -521 -45 -268 -159 -498 -346 -694 -189 -197 -423 -324 -713 -387
-145 -32 -425 -31 -573 0 -409 88 -738 307 -959 639 -417 624 -331 1496 202
2052 372 388 887 579 1434 531z m-2094 -877 c-114 -267 -166 -523 -166 -818 0
-333 62 -605 201 -882 l59 -118 -309 310 c-288 289 -311 315 -344 385 -47 99
-61 176 -55 303 4 81 12 119 36 184 52 141 104 207 365 471 133 133 242 242
244 242 1 0 -13 -35 -31 -77z m4448 -493 c68 -103 88 -166 94 -300 5 -141 -9
-206 -74 -339 -41 -83 -61 -109 -172 -223 -69 -70 -127 -126 -129 -124 -2 2 1
32 6 67 6 35 15 130 20 212 26 384 -51 796 -210 1137 l-50 105 236 -235 c140
-139 254 -262 279 -300z"/>
</g>
</svg>
